<?xml version="1.0" standalone="no"?>
<!DOCTYPE svg PUBLIC "-//W3C//DTD SVG 20010904//EN"
 "http://www.w3.org/TR/2001/REC-SVG-20010904/DTD/svg10.dtd">
<svg version="1.0" xmlns="http://www.w3.org/2000/svg"
 width="200.000000pt" height="200.000000pt" viewBox="0 0 200.000000 200.000000"
 preserveAspectRatio="xMidYMid meet">
<metadata>
Created by potrace 1.10, written by Peter Selinger 2001-2011
</metadata>
<g transform="translate(0.000000,200.000000) scale(0.100000,-0.100000)"
fill="#ffffff" stroke="none">
<path d="M219 1771 l-30 -30 3 -510 3 -510 23 -23 c22 -23 25 -23 327 -26
l305 -3 0 -115 0 -115 -48 2 c-50 3 -76 -6 -67 -22 8 -12 522 -12 530 0 9 16
-17 25 -67 22 l-48 -2 0 115 0 115 305 3 c302 3 305 3 327 26 l23 23 3 510 3
510 -30 30 -29 29 -752 0 -752 0 -29 -29z m1539 -23 c9 -9 12 -136 12 -509 0
-439 -2 -499 -16 -513 -14 -14 -96 -16 -754 -16 -658 0 -740 2 -754 16 -14 14
-16 73 -16 505 0 319 4 497 10 510 10 19 29 19 758 19 569 0 751 -3 760 -12z
m-646 -1193 l-3 -115 -110 0 -109 0 0 115 0 115 113 0 112 0 -3 -115z"/>
<path d="M1093 1523 c-3 -10 -55 -141 -115 -292 -100 -251 -123 -331 -83 -290
20 21 237 570 231 585 -7 19 -25 17 -33 -3z"/>
<path d="M555 1345 c-93 -52 -171 -100 -173 -108 -4 -17 344 -211 365 -203 27
11 -2 32 -158 117 -82 45 -149 83 -149 84 0 2 55 34 123 71 166 92 199 113
192 124 -3 6 -12 10 -18 10 -7 0 -88 -43 -182 -95z"/>
<path d="M1245 1430 c-7 -11 26 -32 193 -124 67 -37 122 -69 122 -71 0 -1 -67
-39 -149 -84 -156 -85 -185 -106 -158 -117 19 -7 367 184 367 202 0 12 -337
204 -358 204 -6 0 -14 -4 -17 -10z"/>
<path d="M290 354 c0 -3 26 -43 57 -87 53 -77 57 -85 54 -134 -2 -42 1 -53 13
-53 12 0 16 11 16 51 0 45 6 60 55 131 30 44 55 84 55 89 0 24 -22 2 -70 -71
l-53 -81 -54 81 c-46 69 -73 96 -73 74z"/>
<path d="M1180 346 c0 -9 8 -16 20 -16 19 0 20 -7 20 -125 0 -77 4 -125 10
-125 6 0 10 25 10 55 l0 55 55 0 55 0 31 -55 c17 -30 35 -55 40 -55 14 0 11
14 -16 63 l-26 45 26 26 c32 32 33 76 1 113 -22 26 -29 27 -125 31 -88 4 -101
2 -101 -12z m208 -28 c6 -6 12 -28 12 -49 0 -48 -18 -59 -99 -59 l-61 0 0 63
0 62 67 -3 c38 -2 74 -8 81 -14z"/>
<path d="M1465 351 c-7 -12 12 -24 25 -16 6 4 10 -40 10 -124 l0 -131 64 0
c73 0 122 14 136 40 16 30 11 69 -11 91 -15 15 -18 24 -10 32 13 13 14 66 3
85 -5 7 -24 17 -43 22 -43 13 -166 13 -174 1z m193 -33 c15 -13 16 -50 0 -66
-7 -7 -39 -12 -75 -12 l-63 0 0 43 c0 24 2 46 4 48 8 8 121 -3 134 -13z m-8
-111 c19 -10 25 -20 25 -47 0 -43 -28 -60 -102 -60 l-53 0 0 60 0 60 53 0 c28
0 63 -6 77 -13z"/>
<path d="M560 251 c-29 -8 -43 -61 -16 -61 9 0 16 9 16 20 0 17 7 20 39 20 26
0 41 -5 45 -16 14 -35 7 -42 -34 -37 -69 10 -115 -41 -74 -81 20 -20 63 -21
91 -1 19 13 22 13 27 0 6 -17 56 -21 56 -5 0 6 -9 10 -20 10 -18 0 -20 7 -20
64 0 39 -5 67 -12 74 -19 14 -69 21 -98 13z m84 -100 c9 -15 -41 -53 -65 -49
-27 3 -38 36 -17 49 17 11 75 11 82 0z"/>
<path d="M805 248 c-11 -6 -23 -15 -26 -20 -3 -6 -9 -3 -12 6 -7 17 -57 22
-57 6 0 -5 9 -10 20 -10 18 0 20 -7 20 -75 0 -43 4 -75 10 -75 6 0 10 26 10
58 0 44 5 63 18 75 26 23 52 22 52 -3 0 -11 7 -20 15 -20 22 0 19 47 -4 60
-24 12 -21 12 -46 -2z"/>
<path d="M940 242 c-55 -28 -65 -97 -20 -142 27 -27 91 -27 115 0 23 25 12 39
-13 17 -24 -22 -65 -22 -85 1 -31 34 -21 42 48 42 65 0 65 0 65 28 0 54 -56
82 -110 54z m80 -31 c15 -30 14 -31 -45 -31 -57 0 -66 8 -39 34 22 23 71 20
84 -3z"/>
</g>
</svg>
